<svg version="1.2" xmlns="http://www.w3.org/2000/svg" viewBox="0 0 103 59" width="103" height="59"><style>.a{fill:#fff}.b{fill:#ffe600}</style><path class="a" d="m45.6 58.3h-1.7v-5.2h-1.1v-1h3.9v1h-1.1zm12.5 0h-1.6v-6.2h1.6v2.5h1.1v-2.5h1.7v6.2h-1.7v-2.7h-1.1zm16.3 0h-3.3v-6.2h3.3v1h-1.6v1.5h1.2v0.9h-1.2v1.9h1.6zm11.1 0h-1.2l0.1-6.2h1.8l0.8 3.6 0.8-3.6h1.7l0.1 6.2h-1.1l-0.2-4.1-0.8 4.1h-1l-0.9-4.2zm17.6 0h-3.3v-6.2h3.2v1h-1.6v1.5h1.2v1h-1.2v1.8h1.7z"/><path fill-rule="evenodd" class="a" d="m47 50.2h-3.9l0.4-23.1h5.8l2.6 13.5 2.9-13.5h5.6l0.4 23.1h-3.8l-0.5-15.3-2.8 15.3h-3.4l-3-15.4zm24.6 0h-5.1l4.6-23.1h6.1l4.5 23.1h-4.9l-0.8-4.9h-3.6zm2.6-16.9l-1.3 9h2.6zm18.5 16.9h-5.4v-23.1h5.4v9.4l4-9.4h5.3l-4.5 10.4 4.7 12.7h-5.5l-3.5-10.2-0.5 0.9z"/><path class="b" d="m37.7 47.7c0 3.1-1.1 5.6-3.3 7.5-2.1 1.9-4.7 2.9-7.8 2.9q-2.9 0-5.2-1.1-2.4-1.1-3.8-3-1.4-1.9-2.1-4.1-0.8-2.2-0.9-4.8v-0.8l0.8-0.2 8-1.5 1.2-0.2v1.1q0 1.2 0 2.1 0.1 0.9 0.2 1.9 0.2 0.9 0.5 1.5 0.2 0.5 0.6 0.8 0.3 0.3 0.8 0.3c0.5 0 1.4 0 1.4-2.1 0-2.4-1.5-5-4.4-7.5l-2.4-2.1q-1.2-1-1.9-1.6-0.8-0.7-1.8-1.9-1-1.2-1.6-2.3 0-0.1-0.1-0.2l-0.1 0.2-11.5-5.4c0 0-0.5-0.5 0.2-0.5 0.6 0 4.8 1.2 6.4 1.1 0.8-0.1 2.4-0.5 1.5-2.2-0.7-1.1-1.8-2.2-4.2-3.9-0.3-0.1-0.5-0.6 0.3-0.4 0.7 0.2 4.6 2.4 6.2 1.8q0.2 0 0.4-0.3 0.3-1 0.8-1.9c0-0.6-0.2-1.4-0.8-2.3-1.8-2.9-3.4-5.2-4.9-7.2 0-0.3 0-0.4 0.1-0.4q0.1 0 0.3 0c2.1 1.5 4.3 3.1 7.2 4.9 1 0.6 1.8 0.8 2.4 0.8q0.9-0.5 1.9-0.8 0.2-0.2 0.3-0.4c0.6-1.6-1.6-5.5-1.9-6.3-0.2-0.7 0.4-0.5 0.5-0.3 1.6 2.5 2.7 3.6 3.8 4.3 1.7 0.8 2.2-0.7 2.2-1.5 0.1-1.6-1.1-5.8-1-6.4 0-0.7 0.4-0.2 0.4-0.2l5.4 11.4q1.4 0.7 2.7 2c2.1 2.1 3.2 4.8 3.2 7.8v0.1h-0.1v0.2 0.7 0.8l-0.8 0.1-8.2 1.1-1.1 0.2v-1.1q0-0.3 0.1-0.8 0-0.5 0-0.8 0-0.7-0.1-1.4-0.1-0.6-0.3-1.2-0.2-0.5-0.5-0.8-0.3-0.2-0.7-0.2c-0.5 0-0.9 0.2-1.1 0.6q-0.6 0.8-0.6 1.9 0 1.1 0.4 2 0.3 0.9 1 1.7 0.7 0.9 1.3 1.5 0.7 0.6 1.7 1.4 1.1 0.9 1.6 1.4 1.7 1.5 2.9 2.8 1.2 1.4 2.3 3.1 1.1 1.7 1.7 3.8 0.5 2 0.5 4.3zm-35.2-23.7c0.6 0.6 0.6 1.5 0 2.1-0.6 0.6-1.5 0.6-2.1 0-0.7-0.6-0.7-1.5 0-2.1 0.6-0.6 1.5-0.6 2.1 0zm2.5-3.1c-0.6-0.6-0.6-1.6 0-2.2 0.6-0.6 1.6-0.6 2.2 0 0.6 0.6 0.6 1.6 0 2.2-0.6 0.6-1.6 0.6-2.2 0zm13.2-12.9c-0.6-0.6-0.6-1.6 0-2.2 0.6-0.6 1.6-0.6 2.2 0 0.6 0.6 0.6 1.6 0 2.2-0.6 0.6-1.6 0.6-2.2 0zm5.5-4.5c-0.6-0.6-0.6-1.6 0-2.2 0.7-0.6 1.6-0.6 2.2 0 0.6 0.6 0.6 1.6 0 2.2-0.6 0.6-1.5 0.6-2.2 0zm-16.6 6.8c-0.6-0.6-0.6-1.6 0-2.2 0.6-0.6 1.6-0.6 2.2 0 0.6 0.6 0.6 1.6 0 2.2-0.6 0.6-1.6 0.6-2.2 0z"/></svg>