<svg version="1.2" xmlns="http://www.w3.org/2000/svg" viewBox="0 0 151 42" width="151" height="42"><style>.a{fill:#fbfbfb}</style><path class="a" d="m146.3 27.4c-2.3 0-4.2-2-4.2-4.3 0-2.4 1.9-4.3 4.2-4.3 2.3 0 4.2 1.9 4.2 4.3 0 2.3-1.9 4.3-4.2 4.3zm0-8.1c-2 0-3.7 1.7-3.7 3.8 0 2 1.7 3.7 3.7 3.7 2 0 3.7-1.7 3.7-3.7 0-2.1-1.7-3.8-3.7-3.8zm-1.5 1.5c0.3 0 0.8-0.1 1.4-0.1 0.7 0 1.2 0.1 1.5 0.4q0.4 0.3 0.4 1c0 0.6-0.4 1-0.8 1.1 0.3 0.2 0.5 0.5 0.6 0.9 0.2 0.5 0.3 1.2 0.4 1.3h-1.1q-0.1-0.2-0.3-1.1c-0.1-0.5-0.3-0.7-0.7-0.7h-0.4v1.8h-1zm1 2.1h0.5c0.5 0 0.8-0.3 0.8-0.7 0-0.4-0.3-0.7-0.8-0.7q-0.4 0-0.5 0.1zm-134.1 19h-12c0 0 1.6-0.7 2.9-1.1 0.4-0.2 0.7-0.3 0.8-0.5-0.7-0.8-1.2-1.9-1.2-3.1 0-2.5 2-4.6 4.5-4.6 0.9 0 1.8 0.3 2.5 0.7-0.2 0.6-0.3 1.2-0.3 1.8 0 1.4 0.5 2.6 1.4 3.5-0.4-0.8-0.7-1.8-0.7-2.9 0-3.3 2.7-6.1 6-6.1 3.3 0 6 2.8 6 6.1 0 1-0.2 1.9-0.6 2.8 0.8-1 1.3-2.1 1.3-3.4 0-0.9-0.3-1.8-0.8-2.7q0.6-0.1 1.2-0.2c2.2 0 4.1 1.8 4.4 4-1.2 0.5-2.1 1.5-2.6 2.8h0.2c0.8-1.3 2.2-2.2 3.8-2.2 2.1 0 3.8 1.5 4.3 3.4 0.2 0.2 0.5 0.4 1 0.6 1.3 0.4 2.9 1.1 2.9 1.1zm7.8-20.9c0 0-1.6 0.9-2.7 0.9-0.8 0.1-2.7-0.9-2.7-0.9 0 0 0 0-3.7 1.5 0.2-3.1 1.8-5 3.1-7.3-1-11.5 3.1-14.4 3.1-14.4 0 0 4.4 2.9 3.4 14.4 1.4 2.3 2.9 4.2 3.1 7.3-3.6-1.5-3.6-1.5-3.6-1.5zm0 0c0 0-1.6 0.9-2.7 0.9-0.8 0.1-2.7-0.9-2.7-0.9 0 0 0 0-3.7 1.5 0.2-3.1 1.8-5 3.1-7.3-1-11.5 3.1-14.4 3.1-14.4 0 0 4.4 2.9 3.4 14.4 1.4 2.3 2.9 4.2 3.1 7.3-3.6-1.5-3.6-1.5-3.6-1.5zm-1.4 3.4l0.7 4.2-1.2-1.1c0 0-0.2 0.6-0.3 0.6 0 0-0.3 0.7-0.4 0.7 0 0-0.2-0.7-0.2-0.7-0.1 0-0.3-0.6-0.3-0.6l-1.2 1.1 0.7-4.2-1 1.1 0.9-2.7c0.2 0.2 0.9 0.6 1.2 0.6 0.3 0 1-0.4 1.2-0.6l1 2.7zm27.5 17.2h-3.2l3.6-17.7h4.8q1.1 0 2 0.1 0.8 0.1 1.4 0.2 1.7 0.5 2.5 1.6 0.8 1.1 0.8 2.6 0 1.1-0.3 2-0.2 1-0.9 1.7-0.6 0.8-1.6 1.3-1 0.6-2.4 0.9l3.9 7.3h-3.5l-3.6-6.8h-2.1zm2-9.6h1.2q0.9 0 1.6-0.1 0.7 0 1.2-0.2 1.3-0.3 2-1.1 0.7-0.8 0.7-2 0-0.7-0.3-1.1-0.2-0.5-0.9-0.7-0.3-0.1-0.8-0.2-0.5-0.1-1.3-0.1h-2.3zm20.9-8.4q1.5 0 2.7 0.4 1.3 0.4 2.2 1.3 0.9 0.8 1.4 2.1 0.5 1.3 0.5 2.9 0 1.1-0.3 2.3-0.2 1.3-0.7 2.6-0.4 1.3-1.2 2.5-0.8 1.2-1.9 2.2-1.1 0.9-2.6 1.5-1.5 0.6-3.3 0.6-1.6 0-2.8-0.5-1.3-0.4-2.2-1.2-0.9-0.9-1.3-2.2-0.5-1.2-0.5-2.9 0-1 0.2-2.3 0.2-1.3 0.7-2.5 0.5-1.3 1.2-2.6 0.8-1.2 1.9-2.1 1.1-1 2.6-1.6 1.5-0.5 3.4-0.5zm-0.3 2.7q-1 0-1.9 0.4-0.9 0.3-1.6 1-0.8 0.6-1.3 1.5-0.6 0.9-1 1.8-0.3 1-0.5 2.1-0.2 1-0.2 2 0 1 0.2 1.8 0.3 0.8 0.8 1.3 0.5 0.5 1.2 0.8 0.7 0.2 1.6 0.2 1.1 0 1.9-0.3 0.9-0.4 1.7-1.1 0.7-0.6 1.3-1.5 0.5-0.8 0.9-1.8 0.4-1 0.5-2 0.2-1.1 0.2-2.1 0-2-1-3.1-1-1-2.8-1zm19.5 0q-1.1 0-2.1 0.3-1 0.4-1.7 0.9-0.8 0.6-1.4 1.4-0.6 0.8-1 1.8-0.4 0.9-0.6 1.9-0.2 1.1-0.2 2.1 0 1.3 0.4 2.2 0.3 0.9 1 1.4 0.6 0.5 1.5 0.7 0.8 0.2 1.8 0.2 1 0 2.1-0.2 1.1-0.2 2.2-0.6l-0.5 2.9q-1.1 0.4-2.3 0.5-1.2 0.2-2.2 0.2-1.6 0-2.9-0.4-1.3-0.4-2.3-1.3-0.9-0.8-1.5-2.2-0.5-1.3-0.5-3.1 0-1.3 0.3-2.7 0.2-1.3 0.8-2.6 0.5-1.3 1.3-2.4 0.8-1.1 1.9-1.9 1.1-0.9 2.6-1.4 1.5-0.4 3.2-0.4 0.9 0 2.1 0.1 1.2 0.2 2.3 0.5l-0.6 2.7q-1-0.3-1.8-0.4-0.9-0.2-1.9-0.2zm4.4 15.3l3.7-17.7h3.2l-1.6 7.9 7.3-7.9h3.9l-8.3 8.9 5.5 8.8h-3.7l-5-8.2h-0.1l-1.7 8.2zm19.4-2.7h8.3l-0.5 2.7h-11.5l3.6-17.7h11l-0.5 2.7h-7.8l-1 4.6h6.7l-0.5 2.7h-6.7zm19 2.7h-3.2l3-15h-5.5l0.6-2.7h14.2l-0.5 2.7h-5.6z"/></svg>