<svg version="1.2" xmlns="http://www.w3.org/2000/svg" viewBox="0 0 164 40" width="164" height="40"><style>.a{fill:#fbfbfb}</style><path class="a" d="m62.7 11.5c1.4 1.4 2.2 3.1 2.2 5.2l0.1 9.5 0.1 1.8h-1.1l-3-0.1v-0.1-1.1-9.7c0-1.2-0.6-2.1-1.2-2.8q-0.9-1-2.4-1-1.5 0-2.5 1-1.1 1-1.1 2.8l0.2 9.7v1.3h-1-2.5l-0.4-0.1v-1.2l-0.1-9.8c0-1.1-0.5-2-1.2-2.7q-0.9-1-2.3-1-1.6 0-2.6 1c-0.7 0.6-0.9 1.6-0.9 2.8v9.7 1.2l-0.9 0.1h-2.5-0.5l-0.1-1.1v-16-0.8l0.8-0.1h2.2 0.9l-0.1 0.5v0.4c1.2-1 2.6-1.9 4.3-1.9 1.2 0 2.3 0.8 3.4 1.4q1 0.7 1.8 1.7 1.2-1.5 3.2-2.2c0.7-0.3 1.5-0.9 2.4-0.9 0.9 0 1.8 0.6 2.6 1q1.2 0.5 2.2 1.5zm18.4 0.6c1.6 1.7 1.9 3.8 1.9 6.4 0 2.6-0.3 4.8-1.8 6.5-1.7 1.8-3.9 3-6.6 3-2.6 0-4.8-1.2-6.5-3-1.6-1.7-2.1-3.8-2.1-6.4 0-2.6 0.5-4.8 2.1-6.5 1.7-1.7 3.8-3.1 6.5-3.1 2.6 0 4.9 1.4 6.5 3.1zm-2.9 10.3c-0.9 1.1-2 1.6-3.6 1.6-1.5 0-2.7-0.5-3.6-1.6-0.9-1-2-2.2-2-3.8 0-1.5 1.1-2.9 2-3.9 0.9-1 2-1.7 3.6-1.7 1.5 0 2.7 0.7 3.6 1.7 0.9 1 1.8 2.3 1.8 3.9 0 1.6-0.9 2.8-1.8 3.8zm21.8-10.3c1.5 1.7 2 3.9 2 6.5 0 2.6-0.5 4.7-2 6.4-1.7 1.8-3.9 3-6.6 3-2.7 0-4.8-1.2-6.5-3-1.6-1.7-1.9-3.8-1.9-6.4 0-2.6 0.3-4.8 1.9-6.5 1.7-1.7 3.9-3.1 6.5-3.1 2.7 0 4.9 1.4 6.6 3.1zm-3 10.3c-0.8 1.1-2 1.6-3.6 1.6-1.5 0-2.7-0.5-3.6-1.6-0.8-1-1.8-2.2-1.8-3.8 0-1.6 1-2.9 1.8-3.9 0.9-1 2.1-1.7 3.6-1.7 1.6 0 2.8 0.7 3.7 1.7 0.8 1 1.9 2.3 1.9 3.9 0 1.6-1.1 2.8-2 3.8zm20.4-10.9c1.4 1.4 2.6 2.8 2.6 5.2v9.5 1.7h-0.9l-3.1 0.1v-0.1-1.1-9.5c0-1.3-0.7-2.3-1.5-3-0.7-0.8-1.6-1.3-2.7-1.3-1.2 0-2.2 0.6-3 1.3-0.8 0.8-0.8 1.8-0.8 3.1l-0.1 9.2v1.3h-1l-1.7 0.1-1.2-0.1v-1-15.8l0.1-2 0.9-0.1h2 0.9 0.1l-0.1 2.1c0.4-0.3 0.3-0.5 0.7-0.7 1-0.6 2.1-1.4 3.3-1.4 1.2 0 2.2 0.6 3.1 1q1.4 0.5 2.4 1.5zm19.2 0.6c1.5 1.8 2.4 3.9 2.4 6.5 0 2.5-0.9 4.7-2.4 6.4-1.7 1.8-3.8 3-6.5 3-2 0-3.9-0.9-5.2-2l0.1 6.8-0.1 1.2-0.4-0.1-2.6 0.1h-0.9v-0.8-22.4-1.8h0.9 2.5 0.6v1.4 0.8c1.4-1.1 3.2-2.2 5.2-2.2 2.6 0 4.7 1.4 6.4 3.1zm-10.3 10.3c-0.9-1-1.3-2.2-1.3-3.8 0-1.6 0.4-2.9 1.3-3.9 0.9-1 2.1-1.7 3.6-1.7 1.6 0 2.8 0.7 3.7 1.7 0.9 1 1.4 2.3 1.4 3.9 0 1.5-0.5 2.8-1.4 3.8-0.9 1.1-2.1 1.6-3.7 1.6-1.5 0-2.7-0.5-3.6-1.6zm17.5-12.4l0.2 0.1v2.6 11.6 2.7h-0.6-1.7l-0.7-0.1v-0.7-13.7-2.5h0.8zm0.1-5.9v0.5 2.2l0.1 1.2-0.8 0.1-1.6-0.1h-0.6v-0.9-2.1-1h0.6zm18.9 16.9l1.1 0.1-0.4 0.7q-0.8 2.7-3 4.3c-1.5 1.1-3.3 1.9-5.4 1.9-2.6 0-4.8-1.2-6.5-2.9-1.6-1.8-2.6-3.9-2.6-6.5 0-2.5 1-4.7 2.6-6.4 1.7-1.8 3.8-3.2 6.4-3.2 2.1 0 4 1 5.5 2.1q2.2 1.6 3 4.3l0.3 0.6h-1-2.7l-0.6 0.1-0.1-0.2q-0.4-1.2-1.5-2-1-0.7-2.3-0.7-1.4 0-2.4 0.4-0.9 0.5-1.6 1.2c-0.9 1-1.7 2.3-1.7 3.8 0 1.6 0.8 2.8 1.7 3.8 1 1.1 2.3 1.6 4 1.6q1.3 0 2.3-0.7 1.1-0.8 1.5-2v-0.2h0.8zm-30.9 16.4q-0.5 0.5-1.2 0.5-0.4 0-0.7-0.1-0.3-0.1-0.5-0.4-0.2-0.3-0.3-0.6-0.1-0.4-0.1-0.9 0-0.4 0.1-0.8 0.2-0.4 0.4-0.7 0.2-0.3 0.5-0.4 0.3-0.1 0.7-0.1 0.3 0 0.6 0.1 0.2 0.1 0.5 0.3v-1.8h0.7v5.4h-0.7zm0-0.7v-1.9q-0.5-0.4-1.1-0.4-0.4 0-0.7 0.3-0.3 0.4-0.3 1.2 0 0.7 0.3 1.1 0.2 0.4 0.7 0.4 0.3 0 0.6-0.2 0.2-0.2 0.5-0.5zm6.4 1.2q-0.4 0-0.8-0.1-0.3-0.2-0.6-0.4-0.2-0.3-0.4-0.7-0.1-0.4-0.1-0.8 0-0.5 0.1-0.9 0.2-0.4 0.4-0.6 0.3-0.3 0.6-0.4 0.3-0.2 0.7-0.2 0.5 0 0.8 0.2 0.4 0.1 0.6 0.4 0.2 0.2 0.4 0.6 0.1 0.4 0.1 0.9v0.1h-3q0.1 0.4 0.2 0.6 0 0.3 0.2 0.4 0.2 0.2 0.4 0.3 0.2 0.1 0.4 0.1 0.2 0 0.4-0.1 0.1 0 0.3-0.1 0.1-0.1 0.2-0.2 0.1-0.2 0.1-0.4h0.7q0 0.4-0.2 0.6-0.1 0.2-0.3 0.4-0.3 0.1-0.5 0.2-0.3 0.1-0.7 0.1zm1.1-2.4q-0.1-0.6-0.4-0.8-0.3-0.3-0.8-0.3-0.2 0-0.3 0-0.2 0.1-0.4 0.2-0.1 0.2-0.2 0.4-0.1 0.2-0.2 0.5zm5.6 2.4q-1.7 0-1.7-1.3h0.7q0 0.8 0.9 0.8 0.3 0 0.4-0.1 0.2 0 0.3-0.1 0.1-0.1 0.2-0.2 0-0.1 0-0.3 0-0.1 0-0.2 0-0.1-0.2-0.1-0.1-0.1-0.3-0.2-0.2 0-0.6-0.1-0.4-0.1-0.6-0.2-0.3-0.1-0.4-0.2-0.2-0.1-0.3-0.3 0-0.2 0-0.5 0-0.2 0.1-0.4 0.1-0.2 0.3-0.4 0.1-0.1 0.4-0.2 0.3-0.1 0.6-0.1 1.6 0 1.6 1.1h-0.7q0-0.5-0.8-0.5-0.2 0-0.4 0-0.1 0-0.2 0.1-0.1 0.1-0.2 0.2 0 0.1 0 0.2 0 0.1 0 0.2 0 0 0.1 0.1 0.1 0.1 0.3 0.1 0.3 0.1 0.6 0.2 0.4 0.1 0.7 0.2 0.2 0.1 0.4 0.2 0.2 0.1 0.3 0.3 0 0.2 0 0.5 0 0.2-0.1 0.5-0.1 0.2-0.3 0.4-0.2 0.1-0.5 0.2-0.3 0.1-0.6 0.1zm5.4-4.7h-0.7v-0.8h0.7zm0 4.7h-0.7v-3.9h0.7zm6.9-0.3q0 1.9-1.7 1.9-0.4 0-0.6-0.1-0.3-0.1-0.6-0.3-0.2-0.1-0.3-0.3-0.1-0.3-0.1-0.5h0.7q0 0.6 0.9 0.6 0.3 0 0.4-0.1 0.2 0 0.4-0.2 0.1-0.1 0.2-0.4 0-0.2 0-0.6v-0.2q-0.4 0.6-1.1 0.6-0.4 0-0.7-0.2-0.3-0.1-0.5-0.4-0.2-0.3-0.3-0.6-0.1-0.4-0.1-0.8 0-0.5 0.1-0.9 0.1-0.4 0.4-0.7 0.2-0.2 0.5-0.4 0.3-0.1 0.6-0.1 0.4 0 0.6 0.1 0.3 0.1 0.5 0.3v-0.3h0.7zm-0.7-0.9v-1.8q-0.4-0.5-1-0.5-0.5 0-0.7 0.4-0.3 0.4-0.3 1.2 0 0.7 0.3 1.1 0.2 0.3 0.7 0.3 0.3 0 0.5-0.1 0.3-0.2 0.5-0.6zm4.7-2.2q0.3-0.3 0.6-0.5 0.3-0.1 0.6-0.1 1.4 0 1.4 1.4v2.6h-0.8v-2.5q0-0.3 0-0.5 0-0.1-0.1-0.2-0.1-0.1-0.3-0.2-0.1 0-0.3 0-0.5 0-1.1 0.6v2.8h-0.7v-3.9h0.7zm-156.2-5.9q-0.7-0.3-1.4-0.6c-2-2.8-3.2-6.3-3.2-10 0-9.7 7.9-17.5 17.7-17.5 5.2 0 9.8 2.1 13 5.6q-2.5-0.6-5.1-0.6-2.3 0-4.7 0.5c-5 1.1-8.4 5.5-8.5 10.4q-0.2 0.7-0.2 1.6c0 3 2.5 5.4 5.5 5.4q0.9 0 1.7-0.3 0.1 0 0.1 0 0 0.1-0.1 0.2c-1.5 4.1-5.8 6.9-10.4 6.3q-2.3-0.3-4.4-1zm24.7-12.6c-2.5-3.4-6.9-4.6-10.7-3.4 1.4 0.2 2.7 1 3.5 2.1q0.3 0.2 0.6 0.4c3.6 3.4 4.6 8.8 2 13.3q-1.2 2.1-2.8 3.8-1.7 1.9-3.9 3.2c6.7-0.1 12.5-3.9 15.4-9.4-0.2-2.1-0.8-4.2-1.7-6.2q-1-2-2.4-3.8zm2.6-8.5c-2-0.6-4.1-1-6.3-1q-2.2 0-4.5 0.5c-3.7 0.9-6.5 3.7-7.3 7.1q0.7-0.6 1.5-1.1 0.8-0.5 1.7-0.9c4.5-2 10-0.8 13.2 3.2q1.5 1.9 2.4 4.1 1.1 2.4 1.6 4.9c0.8-2 1.2-4.1 1.2-6.3 0-4-1.3-7.6-3.5-10.5zm-10.8 24q1.6-1.7 2.7-3.6c2-3.5 1.6-7.7-0.6-10.7q0 0.4 0 0.8c0 1.7-0.9 3.3-2.2 4.3q-0.1 0.1-0.2 0.2-0.2 0.6-0.4 1.1c-1.7 4.6-6.4 7.7-11.5 7q-2.3-0.3-4.4-1c2.9 3.2 7 5.4 11.6 5.8 1.9-1 3.6-2.3 5-3.9z"/></svg>