<svg version="1.2" xmlns="http://www.w3.org/2000/svg" viewBox="0 0 100 51" width="100" height="51"><style>.a{fill:#fbfbfb}</style><path class="a" d="m69 1h9v28l-9-0.1zm24.6 7.2c0.2-0.1 1-0.2 2.2-0.2 0.5 0 1-0.1 1.5 0 0.5 0 1.1-0.1 1.7 0h1v-7.4l-0.6-0.2q-1-0.2-2.2-0.3-1.1-0.1-2.6-0.1c-3.4 0-6.1 0.9-7.8 2.8-1.7 1.8-1.8 3.7-1.8 7.4v1.8h-5v7h5v10h8v-10h6v-7h-6v-1.5c0-1.7 0.4-2 0.6-2.3zm-33.7 5.8q-2-1.3-4.6-1.9c-1.6-0.4-3.5-1.1-5.6-1.1-11.6 0-14.3 6.2-14.6 11l-0.1 1h9v-1c0-1.2 0.5-1.9 1.2-2.4q1.4-1 4.2-1c2.3 0 3.4 0.5 4 1 0.5 0.4 1.4 0.8 1.6 1.6 0.1 0.3 0 0.9 0 1.5 0 0.3 0 0.9 0 1.3h-1.7c-6.3 0-10.9 0.7-14.2 2.5-1.3 0.8-1.2 1.3-2.1 2.5h27v-6c0-2.7-0.4-3.6-1-5.1q-1.1-2.5-3.1-3.9zm-40.6-3c-2.8 0-5.8 1.8-8.2 3.6 0-0.3-0.1-0.8-0.1-1.1 0.1-1.3 0-3.4 0-4.8l0.1-8.7h-9.1v29h9v-6c1.1-1.2 2.6-2.1 3.6-2.6q1.6-0.9 3.2-0.9 1.1 0 1.9 0.3 0.5 0.2 0.9 0.6c0.3 0.4 0.2 0.6 0.3 1.1 0.2 0.7 0.1 1.7 0.1 2.7v4.8h9v-5.6c0-8-3.3-12.4-10.7-12.4zm-11.7 40q-1.7 0-3-0.4-1.3-0.4-2.2-1.2-0.9-0.7-1.3-1.7-0.5-1.1-0.5-2.3h2.1q0.1 0.9 0.5 1.6 0.4 0.7 1 1.2 0.7 0.4 1.5 0.6 0.8 0.2 1.8 0.2 0.9 0 1.7-0.2 0.7-0.1 1.3-0.5 0.5-0.4 0.8-0.9 0.3-0.5 0.3-1.2 0-0.6-0.3-1.1-0.3-0.5-0.9-0.8-0.6-0.4-1.5-0.7-1-0.2-2.4-0.5-1.4-0.3-2.4-0.7-1-0.4-1.7-1-0.6-0.5-0.9-1.2-0.3-0.7-0.3-1.6 0-1 0.4-1.9 0.4-0.8 1.2-1.4 0.8-0.6 1.8-1 1.1-0.3 2.4-0.3 1.4 0 2.5 0.3 1.2 0.4 2 1 0.8 0.6 1.3 1.6 0.5 0.9 0.5 2h-2.1q-0.3-2.9-4.1-2.9-1.8 0-2.8 0.6-1 0.7-1 1.9 0 0.5 0.2 0.9 0.2 0.3 0.6 0.6 0.4 0.3 1.2 0.5 0.7 0.2 1.8 0.5 0.7 0.1 1.5 0.3 0.8 0.2 1.5 0.4 0.7 0.3 1.4 0.6 0.6 0.4 1.1 0.9 0.5 0.5 0.8 1.2 0.3 0.7 0.3 1.7 0 1-0.5 1.9-0.4 0.9-1.2 1.6-0.8 0.7-1.9 1-1.2 0.4-2.5 0.4zm22.4-15h-5v15h-2v-15h-5v-2h12zm13.2 15q-1.5 0-2.6-0.3-1.1-0.3-1.8-0.8-0.7-0.5-1.1-1.2c-0.3-0.5-0.3-0.4-0.4-0.9-0.2-0.6-0.3-1.5-0.3-2.1 0-0.5 0-1.3 0-1.9v-9.7l1.9-0.1v9.8q0 1.6 0.3 2.7 0.3 1 0.8 1.6 0.6 0.6 1.4 0.8 0.8 0.2 1.8 0.2 1 0 1.8-0.2 0.8-0.2 1.4-0.8c0.3-0.4 1.3-1 1.5-1.6 0.2-0.7 0.1-1.6 0.1-2.7v-9.8h2v9.8c0 1.2 0.1 2.3-0.1 3.2-0.2 0.9-1.1 1.5-1.5 2.1q-0.8 1-2 1.5-1.3 0.4-3.2 0.4zm26.7-8.5c0 5.5-2.8 8.5-8.4 8.5h-5.5v-17h5.7c5.6 0 8.2 3 8.2 8.5zm-2.3 0q0-1.5-0.2-2.6-0.3-1.2-1-2-0.7-0.8-1.9-1.2c-0.8-0.3-1.6-0.7-2.8-0.7h-3.8v13h3.6c1.2 0 2.4-0.3 3.2-0.6 0.8-0.3 1.2-0.7 1.7-1.3q0.7-0.8 1-2 0.2-1.2 0.2-2.6zm11.4 8.5h-2v-16.9l1.9-0.1zm13.2-16.9q1.7 0 3.2 0.6 1.4 0.6 2.4 1.8 1.1 1.1 1.7 2.6 0.6 1.6 0.6 3.5 0 1.9-0.6 3.5-0.6 1.5-1.6 2.6-1.1 1.2-2.5 1.8-1.5 0.6-3.2 0.6-1.7 0-3.2-0.6-1.4-0.6-2.4-1.7-1.1-1.1-1.7-2.7-0.6-1.6-0.6-3.5 0-1.9 0.6-3.5 0.6-1.5 1.7-2.7 1-1.1 2.5-1.7 1.4-0.6 3.1-0.6zm0 15.2q1.2 0 2.3-0.5 1-0.4 1.7-1.3 0.8-0.9 1.2-2.1 0.4-1.2 0.4-2.8 0-1.6-0.4-2.8-0.4-1.2-1.2-2.1-0.7-0.8-1.7-1.3-1.1-0.4-2.3-0.4-1.2 0-2.2 0.4-1.1 0.5-1.8 1.3-0.8 0.9-1.2 2.1-0.4 1.2-0.4 2.8 0 1.6 0.4 2.8 0.4 1.2 1.2 2.1 0.7 0.9 1.7 1.3 1.1 0.5 2.3 0.5z"/></svg>