<svg version="1.2" xmlns="http://www.w3.org/2000/svg" viewBox="0 0 140 42" width="140" height="42"><style>.a{fill:#fbfbfb}</style><path class="a" d="m46.2 0.9l-3.4 17.1q-0.6 2.7-1.6 4.6-1 2-2.6 3.3-1.6 1.3-3.6 2-2 0.6-4.5 0.6-2.2 0-3.9-0.5-1.7-0.6-2.9-1.6-1.1-1.1-1.6-2.5-0.5-1.4-0.5-3.1 0-1.5 0.4-3.1l3.4-17.1 0.1-0.6h6.6l-0.2 0.9-3.4 17.3q-0.3 1.1-0.3 2 0 0.7 0.2 1.2 0.1 0.5 0.4 0.8 0.3 0.2 0.8 0.4 0.7 0.2 1.6 0.2 1 0 1.9-0.3 0.8-0.3 1.4-0.8 0.6-0.6 1-1.6 0.4-1 0.7-2.4l3.5-17.1 0.1-0.6h6.6zm-23.2-1h-16.2l-0.1 0.6-0.9 4.1-0.2 1h9.6l-2.5 12.6q-0.3 1.3-0.8 2.2-0.5 0.8-1 1.3-0.6 0.5-1.3 0.7-0.6 0.2-1.1 0.2-0.7 0-1.2-0.1-0.6-0.2-1-0.4-0.5-0.2-0.9-0.6-0.4-0.3-0.7-0.6l-0.6-0.7-0.6 0.7-2.8 3.6-0.4 0.5 0.5 0.5q0.6 0.7 1.4 1.2 0.9 0.5 1.8 0.9 1 0.4 2 0.6 1 0.2 2.1 0.2 2.3 0 4.1-0.7 1.9-0.6 3.3-1.8 1.3-1.2 2.2-2.7 1-1.6 1.3-3.4l3.8-18.9zm43.9 7.5q0-1.5-0.6-2.8-0.5-1.4-1.8-2.5-1.2-1-3.1-1.7-1.9-0.5-4.6-0.5h-8.1l-0.2 0.6-5.2 26.5-0.2 0.9h6.6l0.1-0.6 1.5-7.9h2.2q3.3 0 5.9-1 2.5-1 4.2-2.7 1.6-1.6 2.5-3.8 0.8-2.2 0.8-4.5zm-7.3 2.9q-0.4 1-1.2 1.8-0.7 0.7-1.8 1.1-1.1 0.5-2.4 0.5h-1.7l1.6-8.1h2.1q1.3 0 2.1 0.2 0.7 0.3 1.1 0.6 0.3 0.3 0.5 0.7 0.1 0.5 0.1 1 0 1.2-0.4 2.2zm77.6 2.1q1-1.2 1.6-2.7 0.5-1.5 0.5-3.3 0-1.8-0.7-3-0.7-1.3-1.9-2.1-1.2-0.8-2.9-1.1-1.6-0.4-3.6-0.4h-8.2l-0.2 0.7-5.3 26.5-0.1 0.9h6.5l0.2-0.6 2-10.3h0.1q0.7 0 1.1 0.1 0.4 0.1 0.8 0.5 0.3 0.4 0.6 1.1 0.4 0.8 0.7 2l1.6 6.6 0.1 0.6h7.3l-0.3-1-1.8-6.6q-0.4-1.3-0.7-2.3-0.4-1-0.8-1.7-0.4-0.7-0.7-1.1 0.9-0.3 1.6-0.7 1.5-0.9 2.5-2.1zm-5.1-3.2q-0.3 0.7-1 1.2-0.7 0.5-1.7 0.8-1.1 0.3-2.4 0.3h-0.8l1.2-5.9h1.7c1.6 0 2.4 0.3 2.7 0.5 0.3 0.2 0.7 0.5 0.7 1.4q0 1-0.4 1.7zm-62.5-3.7l-3.4 16.7-1.2 5.7h6.7l1.2-5.7 3.3-16.7 1.2-5.6h-6.7zm47.6 6l0.2-0.9h-6.9l-0.2 0.9-0.7 4.1-0.2 0.7h6.9l0.2-0.7zm-11.3 4.8l1.1-5.7 1-5h10.8l0.2-0.6 0.8-4.3 0.2-0.9h-17.5-23.3l-0.2 0.6-0.8 4.2-0.2 0.9h7.2l-4.2 21.4-0.2 0.9h6.7l0.1-0.6 4.3-21.7h9.5l-4.3 21.4-0.2 0.9h17.5l0.2-0.6 0.8-4.2 0.2-1h-10.9zm-84 25.4l1.2-6h1.5q1.1 0 1.7 0.5 0.6 0.5 0.6 1.5 0 0.2 0 0.5 0 0.3-0.1 0.6-0.1 0.3-0.2 0.6-0.1 0.4-0.3 0.7-0.2 0.3-0.4 0.6-0.3 0.3-0.7 0.5-0.4 0.3-0.8 0.4-0.5 0.1-1.1 0.1zm4.2-3.9q0-0.4-0.1-0.6-0.1-0.3-0.3-0.5-0.2-0.1-0.5-0.2-0.3-0.1-0.7-0.1h-0.7l-1 4.6h0.6q0.4 0 0.8-0.1 0.3-0.1 0.6-0.3 0.3-0.2 0.5-0.4 0.2-0.2 0.3-0.5 0.2-0.3 0.3-0.5 0.1-0.3 0.1-0.6 0-0.2 0.1-0.5 0-0.2 0-0.3zm8.8 3.9h-3.4l1.2-6h3.4l-0.1 0.7h-2.6l-0.4 1.9h2.5l-0.1 0.7h-2.5l-0.4 2h2.6zm9.9-6l-3.3 6h-1.1l-0.8-6h0.9l0.5 4.1 0.1 1.2 0.7-1.2 2.1-4.1zm5.9 6h-3.5l1.2-6h3.5l-0.2 0.7h-2.6l-0.4 1.9h2.5l-0.1 0.7h-2.5l-0.4 2h2.6zm8.3 0h-3.5l1.2-6h0.8l-1 5.3h2.6zm5.9 0.1q-0.9 0-1.4-0.5-0.5-0.5-0.5-1.5 0-0.5 0.1-1 0.1-0.5 0.3-0.9 0.1-0.5 0.4-0.9 0.2-0.4 0.6-0.7 0.3-0.3 0.8-0.5 0.4-0.2 0.9-0.2 0.9 0 1.4 0.6 0.4 0.5 0.4 1.5 0 0.4 0 0.9-0.1 0.5-0.3 1-0.2 0.4-0.4 0.8-0.3 0.4-0.6 0.7-0.3 0.4-0.8 0.5-0.4 0.2-0.9 0.2zm2.2-4.1q0-0.3-0.1-0.5 0-0.3-0.2-0.5-0.1-0.1-0.3-0.2-0.2-0.1-0.5-0.1-0.4 0-0.7 0.1-0.3 0.2-0.5 0.5-0.2 0.3-0.4 0.6-0.2 0.4-0.3 0.7-0.1 0.4-0.2 0.8 0 0.3 0 0.6 0 0.3 0 0.6 0.1 0.2 0.2 0.4 0.2 0.2 0.4 0.3 0.2 0.1 0.5 0.1 0.4 0 0.7-0.2 0.3-0.1 0.5-0.4 0.2-0.3 0.4-0.6 0.2-0.4 0.3-0.8 0.1-0.4 0.1-0.7 0.1-0.4 0.1-0.7zm5.3 1.9l-0.5 2.1h-0.8l1.2-6h1.7q0.4 0 0.7 0.1 0.4 0.1 0.7 0.3 0.2 0.2 0.4 0.4 0.1 0.3 0.1 0.7 0 0.3-0.1 0.6 0 0.3-0.2 0.5-0.1 0.3-0.4 0.5-0.2 0.2-0.5 0.4-0.3 0.2-0.7 0.3-0.4 0.1-0.9 0.1zm2.8-2.3q0-0.4-0.3-0.7-0.3-0.2-0.9-0.2h-0.9l-0.5 2.5h0.7q0.4 0 0.7-0.1 0.2-0.1 0.4-0.2 0.2-0.1 0.4-0.3 0.1-0.1 0.2-0.3 0.1-0.2 0.1-0.4 0.1-0.2 0.1-0.3zm9.2 4.4h-0.8l0.6-3.7 0.3-1.4-0.5 0.8-1.3 2.4h-0.6l-0.4-2.3-0.1-0.9-0.3 1.5-0.9 3.6h-0.7l1.5-6h0.9l0.4 2.3 0.1 0.7 0.4-0.7 1.3-2.3h1zm8.4 0h-3.4l1.2-6h3.4l-0.1 0.7h-2.6l-0.4 1.9h2.5l-0.1 0.7h-2.6l-0.4 2h2.6zm7.1 0h-1l-1-3.7-0.3-1.2-0.6 3-0.4 1.9h-0.7l1.2-6h1l1 3.6 0.3 1.3 0.6-3.2 0.4-1.7h0.8zm9.3-5.3h-1.8l-1.1 5.3h-0.8l1.1-5.3h-1.8l0.1-0.7h4.4z"/></svg>