<svg version="1.2" xmlns="http://www.w3.org/2000/svg" viewBox="0 0 146 36" width="146" height="36"><style>.a{fill:#fbfbfb}</style><path class="a" d="m72.2 31h-4.5-5.7c0-0.4 0-1.3 0-1.8 0-0.4 0-0.8 0-1.2h2.3c0.1 0 0.7-0.1 0.7-0.6v-0.8c0-4.2 0-8 0-12.9v-0.7h-0.8-0.3-0.3l-0.1 0.3c-2.4 6.8-4.4 11.4-6.2 15.7q-0.4 0-1 0c-0.6 0-1.4 0-2.1 0-2.1-5-3.4-8.2-5.6-14.9l-0.4-1.1h-0.4-0.4l-0.4-0.1v0.5c-0.1 3.7 0 5.8 0 7.6-0.1 2.2 0 4.3 0 6.5v0.5h0.7 2.3c0 0.9 0 2.1-0.1 3h-5.3-4.6v-3h2.6 0.1v-0.1c0.3-0.1 0.4-0.3 0.4-0.5 0-5.6-0.2-12.1-0.1-18.3v-1.1h-0.4-1.6c0-0.5 0-1.5 0-2 0-0.5 0-1.5 0-1.9l10-0.1c1.2 3.3 3.4 11.1 5.2 16.4l0.3 0.9 0.1 0.3h0.3 0.3 0.3l0.1-0.3c0.8-2.2 1.6-4.6 2.4-6.9 1.3-3.5 3-7.6 4-10.4h9c0 0.5 0 1.6 0 2.1 0 0.5 0 1.3 0 1.8h-2.5l-0.1 0.1c-0.3 0-0.5 0.6-0.5 0.9 0 3.1 0.1 5.8 0.1 9.2 0 3.2 0 4.9 0 8v1.9h0.6 2.4c0 0.8 0 2.1 0 3zm27.7-0.1l-4.4 0.1h-6.6c0-0.9 0-2.1 0-3l2-0.1c0.2 0 0.3-0.1 0.4-0.2q0.2-0.3 0.1-0.6-0.1-0.3-0.3-0.8c-0.2-0.6-0.4-1.3-0.5-1.8-0.1-0.1-0.3-0.6-0.7-0.6h-7.7l-0.3 0.3v0.3q-0.2 0.5-0.3 1.2c-0.2 0.6-0.4 1.2-0.5 1.7v0.5h0.4l2.4 0.1c0 0.9 0 2.1 0 3h-5.9-4.1c0-0.9 0.1-2.1 0.2-3l1.8-0.1c0.3 0 0.5-0.2 0.6-0.5 2.7-7 6.3-17.2 8.6-23.4 0.8-0.1 2.5 0 5 0 1.4 3.8 2.9 8.9 4.4 13.4 1.3 3.7 2.5 7.3 3.5 10.2v0.3h0.3l1.7 0.1c0 0.9-0.1 1.5-0.1 2.4zm-14-19.7l-0.1 0.3c-0.6 1.8-1.2 3.8-1.7 5.6l-0.8 1.8c-0.1 0.2-0.4 2.1-0.2 2.3v-0.3h0.5 5.3l0.7 0.1-0.6-2.1c-0.6-1.8-0.6-2-1.3-4.3q-0.4-1.5-0.9-3.1l-0.1-0.3h-0.3-0.2-0.3zm31.3 18.2c-0.9-1.7-1.8-4-2.7-6.1l-0.4-0.9c-0.6-1.4-1.1-2.5-2.3-2.5-0.5 0-1.2-0.1-1.4 0l-0.3 0.6-0.1 0.3v6.6l0.1 0.5h0.4 2.5c0 0.9 0 2.1 0 3h-6.1-4.9c0.1-0.9 0-2.1 0-3h1.6c0.3 0 0.5-0.2 0.5-0.5l-0.1-17.5v-2h-0.3-1.7c0-1 0-3.1 0-4 3.6 0 6.6 0 9.1 0 2.3 0 3.6 0.6 6 1.1 3.4 0.8 5.9 3.9 5.9 6.4 0 3-2.1 5.5-5.2 6.8l-0.2 0.1v0.3 0.2 0.3l0.2 0.1c1.5 0.7 2.4 2.7 4 5.9l0.5 1c0.4 0.9 0.7 1.6 1.5 1.7l1.1 0.2c0 0.4 0.1 0.9 0.1 1.4 0 0.4 0 1 0 1.5-0.4 0-0.3 0-0.7 0-0.6 0-0.8 0-1.2 0-0.5 0-1.7 0-2.8 0-0.9 0-1.8 0-2.3 0zm-5.2-22.4c-0.7 0-1.2 0-1.5 0.1l-0.3 0.1-0.2 0.3v9.7l0.2 0.4 0.3 0.3c0.2 0 0.6 0 1.2 0 2.9 0 4.7-2.2 4.7-5.2 0-3.2-1.9-5.7-4.4-5.7zm22.2 23.8c-1.4 0-4.3 0.1-6-0.5q-0.5-3.3-0.8-6.6l-0.3-0.4c1.2-0.3 2.7-0.5 3.8-0.7l1.1 3.8q0.1 0.5 0.4 0.6c0.8 0.6 1.8 0.9 2.9 0.9 1 0 2.4-0.3 3.2-1 0.7-0.6 1.1-1.4 1.1-2.5 0-2.4-1.3-2.9-4.5-4.1-4.7-1.8-7.1-4.4-7.1-7.8 0-3 1.7-5 2.7-5.9 1.8-1.6 4.8-2.7 8.5-2.7 2.3 0 4.2 0.5 5.1 0.8 0.2 2.3 0.6 4.7 0.8 7-1.1 0.1-2.5 0.2-3.6 0.4h-0.2l-0.8-3.5c-0.1-0.2-0.1-0.4-0.3-0.5-0.6-0.5-1.5-1.1-2.3-1.1-1.1 0-2 0.6-2.8 1.1-0.4 0.3-1.2 1.2-1.2 2.7 0 2.4 1.1 2.9 4.9 4.2 4.7 1.7 6.7 3.9 6.7 7.5 0 2.5-1.1 4.8-2.9 6.3-2 1.5-4.5 2-8.3 2zm-118.3-23.3c0 4.2-3.4 7.6-7.6 7.6-4.2 0-7.5-3.4-7.5-7.6 0-4.2 3.3-7.6 7.5-7.6 4.2 0 7.6 3.4 7.6 7.6zm0 20.2c0 4.2-3.4 7.6-7.6 7.6-4.2 0-7.5-3.4-7.5-7.6 0-4.2 3.3-7.7 7.5-7.7 4.2 0 7.6 3.5 7.6 7.7zm16.5-10.1c0 4.2-3.4 7.6-7.6 7.6-4.2 0-7.6-3.4-7.6-7.6 0-4.2 3.4-7.6 7.6-7.6 4.2 0 7.6 3.4 7.6 7.6z"/></svg>